<?xml version="1.0" standalone="no"?>
<!DOCTYPE svg PUBLIC "-//W3C//DTD SVG 20010904//EN"
 "http://www.w3.org/TR/2001/REC-SVG-20010904/DTD/svg10.dtd">
<svg version="1.0" xmlns="http://www.w3.org/2000/svg"
 width="512.000000pt" height="512.000000pt" viewBox="0 0 512.000000 512.000000"
 preserveAspectRatio="xMidYMid meet">
<metadata>
Created by potrace 1.11, written by Peter Selinger 2001-2013
</metadata>
<g transform="translate(0.000000,512.000000) scale(0.100000,-0.100000)"
fill="#000000" stroke="none">
<path d="M549 4963 c-148 -38 -266 -153 -305 -298 -4 -16 -8 -923 -9 -2015 -1
-1505 2 -1997 11 -2037 28 -122 128 -236 246 -283 63 -25 64 -25 395 -25 183
0 333 -2 333 -5 0 -3 9 -6 20 -6 11 0 20 4 20 8 0 4 11 3 24 -2 15 -5 27 -5
34 2 6 6 12 6 16 -1 4 -7 15 -7 30 -1 13 5 27 6 31 2 4 -4 12 -7 18 -7 5 0 12
-6 14 -12 3 -7 0 -13 -7 -13 -6 0 -8 -5 -4 -12 4 -7 3 -8 -5 -4 -6 4 -23 10
-38 12 -15 3 -32 9 -38 14 -7 6 -16 5 -24 -3 -11 -9 -14 -9 -18 1 -6 16 -20
16 -20 0 0 -7 -2 -17 -4 -23 -2 -5 0 -11 5 -12 5 -1 13 -7 17 -15 6 -9 9 -9 9
-1 0 6 -4 15 -10 18 -5 3 -10 11 -10 17 0 6 9 3 20 -7 20 -18 21 -18 14 1 -7
16 -6 17 8 6 8 -7 24 -10 34 -6 11 3 9 -1 -6 -10 -14 -8 -20 -15 -15 -15 6 -1
17 3 25 9 9 6 20 5 29 -3 12 -9 13 -9 7 1 -4 6 -2 12 3 12 6 0 12 -4 12 -10 1
-5 2 -14 3 -19 0 -5 5 -13 10 -18 5 -5 6 -3 2 5 -4 7 -2 12 6 12 9 0 9 3 -2
10 -13 8 -12 12 4 27 17 15 18 15 7 1 -11 -15 -10 -17 8 -15 13 1 19 6 17 14
-3 8 1 10 11 6 14 -5 13 -9 -5 -24 -12 -9 -22 -20 -22 -24 0 -4 6 -2 14 4 7 6
20 9 28 6 8 -3 21 1 28 10 8 10 9 15 1 15 -6 0 -11 -4 -11 -10 0 -5 -5 -10
-10 -10 -6 0 -5 8 2 20 11 17 14 18 27 5 13 -13 12 -17 -5 -37 l-19 -23 23 19
c20 18 26 16 23 -9 -1 -5 5 -2 12 7 11 14 16 15 27 5 10 -9 11 -9 6 1 -4 7 -1
15 8 18 8 3 12 13 9 22 -4 13 -3 14 5 3 8 -11 11 -11 16 0 3 8 3 3 0 -10 -4
-14 -1 -27 7 -32 22 -14 35 -10 15 4 -17 12 -15 13 15 11 19 -1 36 -3 39 -4 3
-1 8 -2 13 -1 4 0 7 -3 7 -7 0 -5 7 -9 15 -9 8 0 12 3 10 7 -2 4 23 6 55 6 35
0 60 -5 60 -11 0 -6 3 -7 8 0 10 14 52 15 52 1 0 -6 5 -4 10 4 7 11 10 11 10
2 0 -7 4 -10 10 -7 5 3 10 0 10 -7 0 -7 7 -3 15 9 8 12 12 28 9 37 -3 9 -1 16
5 16 6 0 10 -3 10 -7 -4 -23 2 -53 10 -53 5 0 7 9 4 20 -3 12 0 20 6 20 7 0 9
-4 6 -10 -3 -5 -1 -10 5 -10 6 0 9 -4 6 -8 -3 -5 1 -9 9 -9 8 0 11 5 7 11 -10
17 -11 37 -1 30 5 -3 7 -10 4 -15 -4 -5 0 -9 8 -9 8 0 19 -10 24 -22 10 -22
10 -21 9 7 -1 17 -6 37 -11 45 -8 13 -7 13 10 0 10 -8 20 -14 22 -12 9 7 23 0
23 -11 0 -9 10 -13 28 -12 15 1 31 -3 35 -9 6 -7 7 -5 4 5 -3 9 -1 22 4 30 7
11 9 11 9 1 0 -7 4 -10 10 -7 5 3 10 2 10 -2 0 -5 7 -18 15 -29 15 -19 15 -19
8 1 -6 16 -4 18 8 8 17 -14 30 -14 46 -2 8 7 14 5 21 -7 8 -15 9 -15 15 0 4
10 3 14 -2 11 -5 -3 -12 -1 -15 4 -11 17 27 4 40 -14 11 -15 14 -16 19 -3 7
16 65 20 65 4 0 -6 5 -4 10 4 9 13 10 13 10 0 0 -13 1 -13 10 0 8 12 10 12 10
1 0 -8 3 -11 7 -8 3 4 16 1 28 -7 18 -12 22 -12 22 -1 0 8 -4 12 -9 9 -4 -3
-8 -1 -8 4 0 9 -8 11 -55 14 -14 1 -25 5 -25 9 0 11 43 7 59 -5 12 -9 13 -7 8
9 l-7 20 15 -20 c9 -11 18 -19 20 -17 14 7 25 0 19 -10 -5 -9 -3 -9 7 0 12 11
11 16 -6 29 l-20 16 20 -8 c11 -4 29 -7 40 -7 18 1 18 0 3 -9 -20 -11 -24 -29
-7 -29 5 0 7 5 3 12 -5 7 0 9 14 6 13 -4 23 0 26 8 3 9 15 13 28 10 40 -7 58
-18 51 -29 -4 -6 -1 -7 6 -3 7 5 10 14 7 21 -3 8 4 12 20 12 13 0 24 -3 24 -8
0 -5 -5 -8 -11 -6 -6 1 -13 -4 -15 -11 -2 -8 -1 -9 3 -1 4 8 11 3 20 -12 l14
-24 -7 24 c-4 15 -2 21 4 17 5 -3 13 1 16 9 4 11 14 14 35 10 22 -4 33 0 40
12 9 16 10 15 8 -4 0 -12 -3 -20 -5 -18 -3 2 -14 0 -25 -6 -12 -7 -17 -7 -13
-1 3 6 -2 9 -11 8 -20 -3 -28 -21 -14 -31 7 -4 8 1 4 12 -6 15 -4 16 9 6 8 -7
18 -10 22 -6 11 11 71 11 78 -1 5 -7 8 -6 8 4 0 13 1 13 11 0 9 -13 10 -13 6
0 -2 8 -10 14 -16 13 -6 -2 -11 2 -11 7 0 14 17 13 26 -1 5 -8 12 -5 23 10
l16 21 0 -24 c0 -15 -5 -22 -12 -19 -7 3 -13 -1 -13 -8 0 -7 3 -9 7 -6 3 4 12
2 20 -5 7 -6 16 -8 20 -4 3 3 1 6 -6 6 -7 0 -9 5 -6 10 9 14 89 12 103 -2 7
-7 12 -8 12 -4 0 5 7 3 16 -4 12 -11 15 -11 12 0 -2 9 8 14 30 15 18 1 32 -3
32 -9 0 -7 3 -8 8 -1 11 16 45 13 60 -5 11 -13 12 -13 7 0 -3 9 1 24 8 34 12
16 15 16 28 4 26 -26 49 -29 49 -8 0 11 4 20 9 20 4 0 7 -12 5 -26 -2 -21 9
-27 12 -6 0 4 4 15 9 25 6 15 10 16 16 5 5 -7 9 -17 9 -23 0 -5 -4 -4 -9 4 -6
9 -11 10 -15 2 -4 -6 -2 -11 4 -11 6 0 9 -4 6 -8 -2 -4 5 -9 17 -9 15 -2 18 0
9 6 -11 7 -11 11 2 23 8 9 13 18 11 20 -3 3 2 5 10 5 8 0 12 -4 10 -8 -3 -3 9
-12 25 -19 16 -7 27 -17 24 -22 -3 -5 3 -4 15 4 12 7 21 16 21 19 0 4 7 10 16
13 14 5 15 4 5 -8 -9 -10 -9 -15 1 -18 17 -7 38 1 38 14 0 6 -7 4 -17 -3 -15
-13 -15 -12 -2 8 13 22 30 31 28 16 -1 -5 -1 -15 0 -23 1 -12 3 -12 10 -2 12
19 46 10 45 -11 -1 -9 2 -14 8 -11 5 3 6 14 3 24 -19 59 -20 58 73 58 48 0 90
1 95 2 17 4 85 3 93 -2 8 -4 30 -3 37 1 1 1 121 3 266 3 146 1 282 5 303 10
131 29 242 130 294 268 16 42 17 188 19 2038 1 2125 3 2042 -47 2140 -46 91
-173 189 -268 206 -14 2 -27 5 -30 7 -3 1 -893 2 -1979 3 -1548 1 -1984 -1
-2022 -11z m1101 -4674 c0 -5 5 -7 12 -3 7 4 8 3 4 -5 -6 -9 -11 -9 -22 0 -17
14 -18 19 -4 19 6 0 10 -5 10 -11z m160 2 c0 -6 -4 -12 -8 -15 -5 -3 -9 1 -9
9 0 8 4 15 9 15 4 0 8 -4 8 -9z m80 5 c0 -2 -8 -10 -17 -17 -16 -13 -17 -12
-4 4 13 16 21 21 21 13z m1393 -11 c-3 -9 -8 -14 -10 -11 -3 3 -2 9 2 15 9 16
15 13 8 -4z m-1242 -18 c-10 -9 -11 -8 -5 6 3 10 9 15 12 12 3 -3 0 -11 -7
-18z m1064 13 c3 -5 1 -10 -4 -10 -6 0 -11 5 -11 10 0 6 2 10 4 10 3 0 8 -4
11 -10z m105 4 c0 -8 -19 -13 -24 -6 -3 5 1 9 9 9 8 0 15 -2 15 -3z m44 -2 c2
-4 -4 -8 -14 -8 -10 0 -16 4 -14 8 3 4 9 8 14 8 5 0 11 -4 14 -8z m111 -1 c3
-5 2 -12 -3 -15 -5 -3 -9 1 -9 9 0 17 3 19 12 6z m55 -1 c0 -5 -5 -10 -11 -10
-5 0 -7 5 -4 10 3 6 8 10 11 10 2 0 4 -4 4 -10z m-1639 -19 c18 -11 26 -22 20
-25 -6 -4 -11 -2 -11 3 0 6 -5 11 -11 11 -5 0 -7 -6 -3 -12 5 -9 2 -9 -9 1
-11 9 -17 9 -17 2 0 -12 -27 -10 -47 2 -20 12 -15 23 10 24 12 0 16 -1 10 -4
-7 -3 -13 -8 -13 -13 0 -10 20 -8 39 4 11 7 11 10 0 17 -28 18 2 8 32 -10z
m74 3 c14 -9 25 -20 25 -26 0 -5 -10 1 -22 12 -12 11 -28 18 -36 15 -7 -2 -10
0 -7 5 8 13 12 13 40 -6z m1673 -9 c-3 -3 -9 2 -12 12 -6 14 -5 15 5 6 7 -7
10 -15 7 -18z m-1947 7 c0 10 2 10 6 1 9 -24 8 -26 -17 -29 -14 -1 -19 0 -12
3 10 4 9 9 -5 20 -17 13 -16 13 5 3 17 -8 22 -8 23 2z m96 -5 c0 -8 -6 -14
-14 -14 -17 0 -17 14 0 20 6 3 12 6 13 6 0 1 1 -5 1 -12z m526 -12 c-7 -21
-12 -19 -10 4 0 11 5 18 9 15 4 -3 5 -11 1 -19z m163 7 c-10 -2 -22 0 -28 6
-6 6 0 7 19 4 21 -5 23 -7 9 -10z m61 -1 c0 -11 -4 -18 -8 -15 -4 2 -10 0 -14
-6 -4 -6 -11 -8 -16 -4 -6 4 -6 11 2 20 6 7 15 11 20 8 5 -3 9 0 9 5 0 6 2 11
4 11 3 0 4 -9 3 -19z m243 15 c0 -3 -4 -8 -10 -11 -5 -3 -10 -1 -10 4 0 6 5
11 10 11 6 0 10 -2 10 -4z m80 0 c0 -3 -4 -8 -10 -11 -5 -3 -10 -1 -10 4 0 6
5 11 10 11 6 0 10 -2 10 -4z m80 0 c0 -3 -4 -8 -10 -11 -5 -3 -10 -1 -10 4 0
6 5 11 10 11 6 0 10 -2 10 -4z m160 -6 c0 -5 -2 -10 -4 -10 -3 0 -8 5 -11 10
-3 6 -1 10 4 10 6 0 11 -4 11 -10z m105 -8 c-3 -3 -11 0 -18 7 -9 10 -8 11 6
5 10 -3 15 -9 12 -12z m41 9 c-3 -5 1 -14 9 -21 13 -11 14 -10 9 4 -3 9 -2 16
4 16 6 0 9 -8 8 -17 -3 -20 -36 -27 -36 -7 0 10 -5 12 -12 8 -9 -5 -9 -2 1 9
14 18 26 24 17 8z m165 -4 c-6 -8 -9 -16 -6 -18 2 -3 -11 -5 -29 -5 -24 0 -32
4 -28 14 2 8 8 10 11 5 11 -14 31 -14 37 2 4 8 11 15 16 15 7 0 6 -5 -1 -13z
m265 -2 c-2 -14 -16 -22 -16 -10 0 3 0 10 0 15 0 6 4 10 9 10 5 0 8 -7 7 -15z
m-1662 -10 c-4 -8 -8 -15 -10 -15 -2 0 -4 7 -4 15 0 8 4 15 10 15 5 0 7 -7 4
-15z m63 0 c7 0 12 -4 12 -10 -1 -5 -6 -8 -12 -6 -7 2 -22 4 -34 4 -17 1 -20
4 -11 14 5 7 15 10 22 6 6 -4 17 -8 23 -8z m210 0 c0 -8 -4 -12 -9 -9 -5 3 -6
10 -3 15 9 13 12 11 12 -6z m146 -5 c3 6 5 6 3 -1 -3 -15 -34 -21 -42 -8 -3 5
-10 7 -15 4 -5 -4 -9 -1 -9 4 0 15 13 14 29 -1 12 -11 13 -9 7 7 -6 19 -5 19
8 2 9 -11 16 -14 19 -7z m864 -2 c-3 -8 -6 -5 -6 6 -1 11 2 17 5 13 3 -3 4
-12 1 -19z m37 7 c-4 -8 -8 -15 -10 -15 -2 0 -4 7 -4 15 0 8 4 15 10 15 5 0 7
-7 4 -15z m-1384 1 c0 -3 -4 -8 -10 -11 -5 -3 -10 -1 -10 4 0 6 5 11 10 11 6
0 10 -2 10 -4z m620 -6 c0 -5 -2 -10 -4 -10 -3 0 -8 5 -11 10 -3 6 -1 10 4 10
6 0 11 -4 11 -10z m480 0 c0 -5 -2 -10 -4 -10 -3 0 -8 5 -11 10 -3 6 -1 10 4
10 6 0 11 -4 11 -10z"/>
<path d="M1366 291 c-17 -7 -18 -8 -3 -14 10 -4 17 -1 17 6 0 8 4 7 10 -3 7
-12 11 -12 20 -2 5 6 7 10 4 7 -4 -3 -12 -1 -18 4 -6 5 -20 5 -30 2z"/>
<path d="M3715 280 c-2 -4 2 -15 9 -26 8 -10 11 -25 8 -34 -4 -12 -2 -13 8 -3
11 10 11 15 0 28 -8 9 -8 15 -2 15 6 0 18 -10 26 -22 9 -12 16 -18 17 -13 0 6
2 21 4 36 3 22 0 25 -31 26 -19 1 -36 -2 -39 -7z m61 -22 c0 -10 -1 -18 -2
-18 0 0 -8 8 -17 18 -15 16 -15 18 1 18 10 0 18 -8 18 -18z"/>
<path d="M3823 275 c5 -13 3 -15 -12 -10 -16 5 -19 2 -17 -20 1 -14 6 -28 10
-33 4 -4 7 -2 6 3 -7 33 14 43 48 22 20 -13 14 0 -14 29 -16 15 -24 19 -21 9z"/>
<path d="M3886 281 c-4 -6 -14 -7 -24 -4 -9 3 -15 4 -12 2 3 -2 18 -15 35 -29
24 -20 26 -21 12 -4 -14 17 -15 23 -5 27 7 2 10 7 7 11 -4 4 -10 3 -13 -3z"/>
<path d="M3934 275 c1 -8 6 -18 11 -22 4 -4 5 -3 2 4 -4 6 -2 13 5 15 8 3 6 6
-4 10 -10 4 -15 2 -14 -7z"/>
<path d="M1190 273 c0 -6 7 -14 16 -17 8 -3 13 -10 10 -14 -3 -5 1 -9 9 -9 12
0 12 3 2 16 -10 12 -9 14 5 9 9 -4 19 -1 22 7 4 11 0 12 -18 5 -15 -5 -27 -5
-35 3 -8 8 -11 8 -11 0z"/>
<path d="M3910 262 c0 -6 7 -17 15 -25 8 -8 11 -18 7 -22 -4 -5 -1 -5 6 -1 11
6 10 12 -5 29 -10 12 -19 24 -20 26 -2 2 -3 -1 -3 -7z"/>
<path d="M3963 255 c-3 -9 -3 -18 -1 -21 3 -3 8 4 11 16 6 23 -1 27 -10 5z"/>
<path d="M1077 253 c-10 -9 -9 -23 1 -23 5 0 9 7 9 15 0 17 -1 18 -10 8z"/>
<path d="M2117 236 c-3 -8 -2 -18 3 -21 13 -8 20 9 11 24 -6 10 -10 9 -14 -3z"/>
<path d="M3317 236 c-3 -8 -2 -18 3 -21 13 -8 20 9 11 24 -6 10 -10 9 -14 -3z"/>
<path d="M3475 240 c-3 -5 1 -10 10 -10 9 0 13 5 10 10 -3 6 -8 10 -10 10 -2
0 -7 -4 -10 -10z"/>
<path d="M4030 240 c0 -5 5 -10 11 -10 5 0 7 5 4 10 -3 6 -8 10 -11 10 -2 0
-4 -4 -4 -10z"/>
<path d="M2227 224 c3 -7 9 -14 14 -14 14 0 10 17 -5 23 -10 4 -13 1 -9 -9z"/>
<path d="M2674 228 c-3 -5 -1 -15 5 -21 9 -9 10 -7 5 7 -6 15 -4 17 7 10 22
-14 44 -15 30 -1 -15 15 -39 18 -47 5z"/>
<path d="M3667 226 c-4 -10 -1 -13 9 -9 15 6 19 23 5 23 -5 0 -11 -7 -14 -14z"/>
<path d="M1356 222 c-2 -4 4 -8 14 -8 10 0 16 4 14 8 -3 4 -9 8 -14 8 -5 0
-11 -4 -14 -8z"/>
<path d="M3515 220 c6 -10 4 -12 -11 -6 -15 6 -17 5 -6 -5 9 -9 15 -10 23 -2
8 8 7 13 -2 18 -8 6 -10 4 -4 -5z"/>
<path d="M3836 213 c-6 -14 -5 -15 5 -6 7 7 10 15 7 18 -3 3 -9 -2 -12 -12z"/>
<path d="M4115 220 c3 -5 8 -10 11 -10 2 0 4 5 4 10 0 6 -5 10 -11 10 -5 0 -7
-4 -4 -10z"/>
<path d="M3350 209 c0 -5 5 -7 10 -4 6 3 10 8 10 11 0 2 -4 4 -10 4 -5 0 -10
-5 -10 -11z"/>
<path d="M1776 198 c3 -4 11 -5 19 -1 21 7 19 12 -4 10 -11 0 -18 -5 -15 -9z"/>
</g>
</svg>
